# xmcd CD database file
#
# Track frame offsets:
#	150
#	32923
#	64503
#	90412
#	122919
#	150876
#	174624
#	203512
#
# Disc length: 2993 seconds
#
# Revision: 0
# Processed by: cddbd v1.5.1PL0 Copyright (c) Steve Scherf et al.
# Submitted via: CDex 1.51
#
DISCID=590baf08
DTITLE=Ryuta Abiru - Cabaret Nacional
DYEAR=1900
DGENRE=Jazz
TTITLE0=Cabaret nacional
TTITLE1=La playa
TTITLE2=Amores perros
TTITLE3=M and A
TTITLE4=pus pus
TTITLE5=La nostalgia
TTITLE6=Es la vida
TTITLE7=La noche en mazatlan
EXTD=
EXTT0=
EXTT1=
EXTT2=
EXTT3=
EXTT4=
EXTT5=
EXTT6=
EXTT7=
PLAYORDER=
